<svg width="51" height="51" viewBox="0 0 51 51" fill="none" xmlns="http://www.w3.org/2000/svg">
<g clip-path="url(#clip0_244_3152)">
<path d="M3.89453 16.8901C5.62042 16.8901 7.01953 15.491 7.01953 13.7651C7.01953 12.0392 5.62042 10.6401 3.89453 10.6401C2.16864 10.6401 0.769531 12.0392 0.769531 13.7651C0.769531 15.491 2.16864 16.8901 3.89453 16.8901Z" fill="black"/>
<path d="M23.4258 43.8433C25.1517 43.8433 26.5508 42.4442 26.5508 40.7183C26.5508 38.9924 25.1517 37.5933 23.4258 37.5933C21.6999 37.5933 20.3008 38.9924 20.3008 40.7183C20.3008 42.4442 21.6999 43.8433 23.4258 43.8433Z" fill="black"/>
<path d="M21.082 27.437C22.8079 27.437 24.207 26.0379 24.207 24.312C24.207 22.5861 22.8079 21.187 21.082 21.187C19.3561 21.187 17.957 22.5861 17.957 24.312C17.957 26.0379 19.3561 27.437 21.082 27.437Z" fill="black"/>
<path d="M33.582 35.2495C35.3079 35.2495 36.707 33.8504 36.707 32.1245C36.707 30.3986 35.3079 28.9995 33.582 28.9995C31.8561 28.9995 30.457 30.3986 30.457 32.1245C30.457 33.8504 31.8561 35.2495 33.582 35.2495Z" fill="black"/>
<path d="M44.1289 41.4995C45.8548 41.4995 47.2539 40.1004 47.2539 38.3745C47.2539 36.6486 45.8548 35.2495 44.1289 35.2495C42.403 35.2495 41.0039 36.6486 41.0039 38.3745C41.0039 40.1004 42.403 41.4995 44.1289 41.4995Z" fill="black"/>
<path d="M7.01953 38.7651C8.74542 38.7651 10.1445 37.366 10.1445 35.6401C10.1445 33.9142 8.74542 32.5151 7.01953 32.5151C5.29364 32.5151 3.89453 33.9142 3.89453 35.6401C3.89453 37.366 5.29364 38.7651 7.01953 38.7651Z" fill="black"/>
<path d="M47.6445 22.7495C49.3704 22.7495 50.7695 21.3504 50.7695 19.6245C50.7695 17.8986 49.3704 16.4995 47.6445 16.4995C45.9186 16.4995 44.5195 17.8986 44.5195 19.6245C44.5195 21.3504 45.9186 22.7495 47.6445 22.7495Z" fill="black"/>
<path d="M38.2695 12.5933C39.9954 12.5933 41.3945 11.1942 41.3945 9.46826C41.3945 7.74237 39.9954 6.34326 38.2695 6.34326C36.5436 6.34326 35.1445 7.74237 35.1445 9.46826C35.1445 11.1942 36.5436 12.5933 38.2695 12.5933Z" fill="black"/>
<path d="M37.1793 35.1255L39.7574 36.697C39.9454 36.2072 40.2142 35.7524 40.5527 35.3517L37.9645 33.7743C37.7802 34.2655 37.5148 34.7222 37.1793 35.1255ZM43.6488 22.0618L41.8738 23.6044L39.9355 13.8442C39.4456 14.0314 38.9275 14.1345 38.4031 14.1489L40.5152 24.7849L36.384 28.3747C36.8053 28.6882 37.1714 29.0697 37.4672 29.5036L40.8656 26.5505L42.3531 34.0388C42.8389 33.8406 43.3546 33.726 43.8785 33.6997L42.2242 25.3696L44.6703 23.2442C44.2665 22.9096 43.9213 22.51 43.6488 22.0618ZM27.4027 38.2493L30.4496 35.6013C30.0588 35.2509 29.7293 34.8376 29.4746 34.3786L26.3707 37.0759C26.7775 37.4068 27.1263 37.8037 27.4027 38.2493ZM34.2492 11.8657L23.9656 20.6235C24.3788 20.9471 24.7351 21.3374 25.0199 21.7782L35.2602 13.0571C34.8593 12.7189 34.5176 12.3163 34.2492 11.8657ZM30.1098 28.9868L25.4062 26.1196C25.2017 26.6027 24.9175 27.0481 24.5656 27.4372L29.2641 30.3009C29.4706 29.8187 29.7564 29.3745 30.1098 28.9868ZM7.33711 16.936L16.7059 22.6466C16.8922 22.1563 17.1594 21.7008 17.4965 21.2989L8.19414 15.6282C7.98365 16.1088 7.69409 16.5508 7.3375 16.9356L7.33711 16.936ZM13.9801 29.1278L10.2801 32.2794C10.6571 32.646 10.97 33.0731 11.2059 33.5431L14.902 30.3954L20.0484 37.4763C20.4116 37.0981 20.8354 36.7832 21.3023 36.5446L16.0953 29.3794L17.9566 27.7946C17.5654 27.4449 17.2354 27.0323 16.9801 26.5739L15.1742 28.1118L7.17617 17.1075C6.80103 17.4743 6.36718 17.7757 5.89258 17.9993L13.9801 29.1278Z" fill="black"/>
</g>
<defs>
<clipPath id="clip0_244_3152">
<rect width="50" height="50" fill="white" transform="translate(0.769531 0.0932617)"/>
</clipPath>
</defs>
</svg>
