<svg width="51" height="51" viewBox="0 0 51 51" fill="none" xmlns="http://www.w3.org/2000/svg">
<path d="M9.40932 20.2882C9.36163 20.3531 9.32192 20.4235 9.29104 20.4979C9.29104 20.4979 9.29104 20.5248 9.29104 20.5409C9.26767 20.6158 9.255 20.6936 9.2534 20.7721C9.25499 20.8523 9.26766 20.9319 9.29104 21.0086C9.29104 21.0086 9.29104 21.0355 9.29104 21.0463C9.32069 21.1212 9.36049 21.1918 9.40932 21.256L25.1351 40.9871C25.1732 41.04 25.2206 41.0856 25.2749 41.1215H25.3072C25.3584 41.1592 25.4145 41.19 25.4738 41.2129H25.533C25.683 41.263 25.8453 41.263 25.9953 41.2129H26.0545C26.1138 41.19 26.1699 41.1592 26.2211 41.1215H26.2534C26.3078 41.0856 26.3551 41.04 26.3932 40.9871L42.119 21.256C42.231 21.1123 42.2919 20.9354 42.2919 20.7533C42.2919 20.5711 42.231 20.3942 42.119 20.2506L36.1136 12.7237C36.0366 12.6298 35.9398 12.5541 35.8302 12.5021C35.7205 12.45 35.6006 12.4229 35.4792 12.4226H16.0545C15.9331 12.4229 15.8132 12.45 15.7035 12.5021C15.5938 12.5541 15.497 12.6298 15.4201 12.7237L9.41469 20.2506C9.41469 20.2506 9.40932 20.2828 9.40932 20.2882ZM19.447 21.5839L23.8609 36.8151L11.7211 21.5839H19.447ZM39.8179 21.5839L27.6781 36.8151L32.0921 21.5839H39.8179ZM25.7695 37.6108L21.1244 21.5839H30.4147L25.7695 37.6108ZM39.8179 19.971H32.0921L30.3771 14.057H35.0975L39.8179 19.971ZM28.6996 14.057L30.4147 19.971H21.1244L22.8394 14.057H28.6996ZM16.4416 14.057H21.162L19.447 19.971H11.7211L16.4416 14.057ZM10.99 11.5194C11.0646 11.5945 11.1534 11.6541 11.2512 11.6947C11.349 11.7354 11.4539 11.7562 11.5599 11.756C11.7733 11.754 11.9777 11.6692 12.1297 11.5194C12.2795 11.3675 12.3634 11.1628 12.3634 10.9495C12.3634 10.7362 12.2795 10.5315 12.1297 10.3796L9.2319 7.48176C9.07902 7.33931 8.87682 7.26176 8.66789 7.26544C8.45897 7.26913 8.25963 7.35377 8.11187 7.50152C7.96412 7.64928 7.87948 7.84862 7.87579 8.05754C7.87211 8.26647 7.94966 8.46867 8.09211 8.62155L10.99 11.5194ZM5.67276 24.3527H1.57598C1.3621 24.3527 1.15697 24.4377 1.00574 24.5889C0.854496 24.7402 0.769531 24.9453 0.769531 25.1592C0.769531 25.3731 0.854496 25.5782 1.00574 25.7294C1.15697 25.8807 1.3621 25.9656 1.57598 25.9656H5.67276C5.88664 25.9656 6.09177 25.8807 6.243 25.7294C6.39424 25.5782 6.47921 25.3731 6.47921 25.1592C6.47921 24.9453 6.39424 24.7402 6.243 24.5889C6.09177 24.4377 5.88664 24.3527 5.67276 24.3527ZM10.99 38.799L8.09211 41.6968C8.01669 41.7713 7.9568 41.8601 7.91593 41.9579C7.87506 42.0557 7.85401 42.1607 7.85401 42.2667C7.85401 42.3727 7.87506 42.4777 7.91593 42.5755C7.9568 42.6733 8.01669 42.7621 8.09211 42.8366C8.24332 42.9876 8.44829 43.0724 8.662 43.0724C8.87572 43.0724 9.08069 42.9876 9.2319 42.8366L12.1297 39.9388C12.2722 39.7859 12.3498 39.5837 12.3461 39.3747C12.3424 39.1658 12.2577 38.9665 12.11 38.8187C11.9622 38.671 11.7629 38.5863 11.554 38.5826C11.345 38.579 11.1428 38.6565 10.99 38.799ZM25.7695 44.4495C25.5556 44.4495 25.3505 44.5345 25.1993 44.6857C25.048 44.8369 24.9631 45.0421 24.9631 45.256V49.3527C24.9631 49.5666 25.048 49.7717 25.1993 49.923C25.3505 50.0742 25.5556 50.1592 25.7695 50.1592C25.9834 50.1592 26.1885 50.0742 26.3398 49.923C26.491 49.7717 26.576 49.5666 26.576 49.3527V45.256C26.576 45.0421 26.491 44.8369 26.3398 44.6857C26.1885 44.5345 25.9834 44.4495 25.7695 44.4495ZM40.5491 38.799C40.3962 38.6565 40.194 38.579 39.9851 38.5826C39.7762 38.5863 39.5768 38.671 39.4291 38.8187C39.2813 38.9665 39.1967 39.1658 39.193 39.3747C39.1893 39.5837 39.2669 39.7859 39.4093 39.9388L42.3072 42.8366C42.4584 42.9876 42.6633 43.0724 42.8771 43.0724C43.0908 43.0724 43.2957 42.9876 43.447 42.8366C43.5224 42.7621 43.5823 42.6733 43.6231 42.5755C43.664 42.4777 43.6851 42.3727 43.6851 42.2667C43.6851 42.1607 43.664 42.0557 43.6231 41.9579C43.5823 41.8601 43.5224 41.7713 43.447 41.6968L40.5491 38.799ZM49.9631 24.3527H45.8663C45.6524 24.3527 45.4473 24.4377 45.2961 24.5889C45.1448 24.7402 45.0599 24.9453 45.0599 25.1592C45.0599 25.3731 45.1448 25.5782 45.2961 25.7294C45.4473 25.8807 45.6524 25.9656 45.8663 25.9656H49.9631C50.177 25.9656 50.3821 25.8807 50.5333 25.7294C50.6846 25.5782 50.7695 25.3731 50.7695 25.1592C50.7695 24.9453 50.6846 24.7402 50.5333 24.5889C50.3821 24.4377 50.177 24.3527 49.9631 24.3527ZM42.3072 7.48176L39.4093 10.3796C39.2596 10.5315 39.1757 10.7362 39.1757 10.9495C39.1757 11.1628 39.2596 11.3675 39.4093 11.5194C39.5614 11.6692 39.7657 11.754 39.9792 11.756C40.0851 11.7562 40.19 11.7354 40.2878 11.6947C40.3857 11.6541 40.4745 11.5945 40.5491 11.5194L43.447 8.62155C43.5894 8.46867 43.667 8.26647 43.6633 8.05754C43.6596 7.84862 43.5749 7.64928 43.4272 7.50152C43.2794 7.35377 43.0801 7.26913 42.8712 7.26544C42.6622 7.26176 42.46 7.33931 42.3072 7.48176ZM25.7695 5.86886C25.9834 5.86886 26.1885 5.78389 26.3398 5.63265C26.491 5.48141 26.576 5.27629 26.576 5.06241V0.965631C26.576 0.751747 26.491 0.546623 26.3398 0.395384C26.1885 0.244145 25.9834 0.15918 25.7695 0.15918C25.5556 0.15918 25.3505 0.244145 25.1993 0.395384C25.048 0.546623 24.9631 0.751747 24.9631 0.965631V5.06241C24.9631 5.27629 25.048 5.48141 25.1993 5.63265C25.3505 5.78389 25.5556 5.86886 25.7695 5.86886Z" fill="black"/>
</svg>
