<svg width="28" height="29" viewBox="0 0 28 29" fill="none" xmlns="http://www.w3.org/2000/svg">
<path d="M20.2306 6.79985C19.9538 6.79985 19.6831 6.88196 19.4529 7.03579C19.2226 7.18963 19.0432 7.40828 18.9372 7.66409C18.8313 7.91991 18.8035 8.2014 18.8575 8.47298C18.9116 8.74455 19.0449 8.99401 19.2407 9.1898C19.4365 9.38559 19.6859 9.51893 19.9575 9.57295C20.2291 9.62697 20.5106 9.59924 20.7664 9.49328C21.0222 9.38732 21.2409 9.20788 21.3947 8.97765C21.5485 8.74742 21.6306 8.47674 21.6306 8.19985C21.6306 7.82855 21.4831 7.47245 21.2206 7.2099C20.958 6.94735 20.602 6.79985 20.2306 6.79985ZM25.5973 9.62318C25.5746 8.6552 25.3933 7.69749 25.0606 6.78818C24.764 6.01017 24.3023 5.30567 23.7073 4.72318C23.1296 4.12518 22.4235 3.66639 21.6423 3.38152C20.7354 3.0387 19.7766 2.85326 18.8073 2.83318C17.5707 2.76318 17.174 2.76318 14.0006 2.76318C10.8273 2.76318 10.4306 2.76318 9.19398 2.83318C8.22466 2.85326 7.26588 3.0387 6.35898 3.38152C5.57927 3.66927 4.87374 4.12767 4.29398 4.72318C3.69598 5.30089 3.23719 6.00703 2.95232 6.78818C2.60951 7.69508 2.42406 8.65386 2.40398 9.62318C2.33398 10.8598 2.33398 11.2565 2.33398 14.4298C2.33398 17.6032 2.33398 17.9998 2.40398 19.2365C2.42406 20.2058 2.60951 21.1646 2.95232 22.0715C3.23719 22.8527 3.69598 23.5588 4.29398 24.1365C4.87374 24.732 5.57927 25.1904 6.35898 25.4782C7.26588 25.821 8.22466 26.0064 9.19398 26.0265C10.4306 26.0965 10.8273 26.0965 14.0006 26.0965C17.174 26.0965 17.5707 26.0965 18.8073 26.0265C19.7766 26.0064 20.7354 25.821 21.6423 25.4782C22.4235 25.1933 23.1296 24.7345 23.7073 24.1365C24.3049 23.5562 24.767 22.8511 25.0606 22.0715C25.3933 21.1622 25.5746 20.2045 25.5973 19.2365C25.5973 17.9998 25.6673 17.6032 25.6673 14.4298C25.6673 11.2565 25.6673 10.8598 25.5973 9.62318ZM23.4973 19.0965C23.4888 19.8371 23.3547 20.5708 23.1006 21.2665C22.9144 21.7742 22.6152 22.233 22.2256 22.6082C21.8472 22.9938 21.3894 23.2924 20.884 23.4832C20.1883 23.7372 19.4545 23.8714 18.714 23.8798C17.5473 23.9382 17.1156 23.9498 14.0473 23.9498C10.979 23.9498 10.5473 23.9498 9.38065 23.8798C8.61169 23.8942 7.84601 23.7758 7.11732 23.5298C6.63406 23.3293 6.19723 23.0314 5.83398 22.6548C5.44675 22.2801 5.1513 21.8209 4.97065 21.3132C4.68582 20.6075 4.52783 19.8571 4.50398 19.0965C4.50398 17.9298 4.43398 17.4982 4.43398 14.4298C4.43398 11.3615 4.43398 10.9298 4.50398 9.76318C4.50921 9.00608 4.64743 8.25579 4.91232 7.54652C5.11771 7.05408 5.43296 6.61512 5.83398 6.26318C6.18843 5.86205 6.62649 5.54346 7.11732 5.32985C7.82846 5.07323 8.57798 4.93911 9.33398 4.93318C10.5007 4.93318 10.9323 4.86318 14.0006 4.86318C17.069 4.86318 17.5006 4.86318 18.6673 4.93318C19.4079 4.94168 20.1416 5.0758 20.8373 5.32985C21.3675 5.52661 21.8433 5.8465 22.2256 6.26318C22.608 6.62156 22.9067 7.0597 23.1006 7.54652C23.3599 8.25694 23.4942 9.00693 23.4973 9.76318C23.5556 10.9298 23.5673 11.3615 23.5673 14.4298C23.5673 17.4982 23.5556 17.9298 23.4973 19.0965ZM14.0006 8.44485C12.8174 8.44716 11.6614 8.80013 10.6787 9.45917C9.69605 10.1182 8.93076 11.0537 8.47956 12.1476C8.02835 13.2414 7.91149 14.4444 8.14374 15.6046C8.37599 16.7648 8.94693 17.8301 9.78441 18.666C10.6219 19.5018 11.6883 20.0707 12.849 20.3007C14.0096 20.5307 15.2124 20.4115 16.3054 19.9581C17.3983 19.5048 18.3323 18.7377 18.9895 17.7537C19.6466 16.7697 19.9973 15.6131 19.9973 14.4298C19.9989 13.6425 19.8447 12.8626 19.5438 12.135C19.2428 11.4074 18.801 10.7465 18.2437 10.1902C17.6864 9.63402 17.0246 9.19347 16.2964 8.89393C15.5682 8.59439 14.788 8.44177 14.0006 8.44485ZM14.0006 18.3148C13.2323 18.3148 12.4811 18.087 11.8423 17.6601C11.2034 17.2332 10.7054 16.6265 10.4114 15.9166C10.1173 15.2067 10.0404 14.4255 10.1903 13.6719C10.3402 12.9183 10.7102 12.2261 11.2535 11.6827C11.7969 11.1394 12.4891 10.7694 13.2427 10.6195C13.9963 10.4696 14.7775 10.5465 15.4874 10.8406C16.1973 11.1346 16.804 11.6326 17.2309 12.2715C17.6578 12.9103 17.8856 13.6615 17.8856 14.4298C17.8856 14.94 17.7852 15.4452 17.5899 15.9166C17.3947 16.3879 17.1085 16.8162 16.7478 17.177C16.387 17.5377 15.9587 17.8239 15.4874 18.0191C15.016 18.2144 14.5108 18.3148 14.0006 18.3148Z" fill="white"/>
</svg>
