<svg width="24" height="25" viewBox="0 0 24 25" fill="none" xmlns="http://www.w3.org/2000/svg">
<path d="M13.625 9.14219V12.4047H16.55C16.775 12.4047 16.8875 12.6297 16.8875 12.8547L16.4375 14.9922C16.4375 15.1047 16.2125 15.2172 16.1 15.2172H13.625V23.4297H10.25V15.3297H8.3375C8.1125 15.3297 8 15.2172 8 14.9922V12.8547C8 12.6297 8.1125 12.5172 8.3375 12.5172H10.25V8.80469C10.25 6.89219 11.7125 5.42969 13.625 5.42969H16.6625C16.8875 5.42969 17 5.54219 17 5.76719V8.46719C17 8.69219 16.8875 8.80469 16.6625 8.80469H13.9625C13.7375 8.80469 13.625 8.91719 13.625 9.14219Z" stroke="white" stroke-width="1.5" stroke-miterlimit="10" stroke-linecap="round"/>
<path d="M15.6 23.6797H8.4C5.47397 23.6797 3.62086 23.0899 2.48033 21.9494C1.3398 20.8088 0.75 18.9557 0.75 16.0297V8.82969C0.75 5.90366 1.3398 4.05055 2.48033 2.91002C3.62086 1.76949 5.47397 1.17969 8.4 1.17969H15.6C18.526 1.17969 20.3791 1.76949 21.5197 2.91002C22.6602 4.05055 23.25 5.90366 23.25 8.82969V16.0297C23.25 18.9557 22.6602 20.8088 21.5197 21.9494C20.3791 23.0899 18.526 23.6797 15.6 23.6797Z" stroke="white" stroke-width="1.5" stroke-linecap="round" stroke-linejoin="round"/>
</svg>
