<svg width="51" height="51" viewBox="0 0 51 51" fill="none" xmlns="http://www.w3.org/2000/svg">
<path fill-rule="evenodd" clip-rule="evenodd" d="M12.436 42.6984L13.5583 44.6813L14.668 46.6422C14.9739 47.1827 14.7829 47.8751 14.2437 48.1826L15.0142 47.7467C15.5559 47.4401 15.7482 46.7461 15.4417 46.2044L14.3282 44.2369L12.0924 40.2864L9.854 36.3315L9.10127 35.0016C8.83574 34.5323 8.27939 34.3253 7.7832 34.4776L9.08643 36.7803L11.3223 40.7308L12.4357 42.6983L12.436 42.6984Z" fill="#B1B1B5"/>
<path fill-rule="evenodd" clip-rule="evenodd" d="M33.1547 19.6183C33.1547 19.2878 32.8862 19.0194 32.556 19.0194C32.2258 19.0194 31.9575 19.2879 31.9575 19.6183C31.9575 19.9482 32.2258 20.2166 32.556 20.2166C32.8862 20.2166 33.1547 19.9482 33.1547 19.6183ZM36.4438 15.7301C36.749 16.0353 36.749 16.5298 36.4438 16.835L34.5328 18.7459C34.651 19.0129 34.7172 19.3079 34.7172 19.6182C34.7172 20.8099 33.7476 21.7792 32.5559 21.7792C31.3644 21.7792 30.3948 20.8099 30.3948 19.6182C30.3948 18.4265 31.3644 17.4567 32.5559 17.4567C32.8661 17.4567 33.1609 17.5229 33.4279 17.641L35.3389 15.7301C35.6443 15.4249 36.1388 15.4249 36.4438 15.7301ZM25.4093 18.8369H24.5405C24.1088 18.8369 23.7591 19.1866 23.7591 19.6183C23.7591 20.0493 24.1088 20.3991 24.5405 20.3991H25.4093C25.8408 20.3991 26.1905 20.0493 26.1905 19.6183C26.1905 19.1867 25.8408 18.8369 25.4093 18.8369ZM32.556 25.9836C32.1246 25.9836 31.7747 26.3333 31.7747 26.7648V27.6335C31.7747 28.065 32.1246 28.4148 32.556 28.4148C32.9875 28.4148 33.3373 28.0651 33.3373 27.6335V26.7648C33.3372 26.3333 32.9875 25.9836 32.556 25.9836ZM39.7028 20.3991H40.5717C41.0031 20.3991 41.3528 20.0493 41.3528 19.6183C41.3528 19.1867 41.0031 18.8369 40.5717 18.8369H39.7028C39.2712 18.8369 38.9215 19.1866 38.9215 19.6183C38.9214 20.0493 39.2712 20.3991 39.7028 20.3991ZM26.95 15.1171C27.1026 15.2696 27.3027 15.346 27.5026 15.346C27.7024 15.346 27.9024 15.2697 28.0548 15.1171C28.36 14.8119 28.36 14.3174 28.0548 14.0122L27.4405 13.3978C27.1354 13.0926 26.6407 13.0926 26.3357 13.3978C26.0305 13.7029 26.0305 14.1975 26.3357 14.5026L26.95 15.1171ZM26.95 24.119L26.3357 24.7335C26.0305 25.0387 26.0305 25.5332 26.3357 25.8384C26.4881 25.9909 26.6881 26.0673 26.888 26.0673C27.088 26.0673 27.288 25.991 27.4405 25.8384L28.0548 25.2239C28.36 24.9192 28.36 24.4242 28.055 24.119C27.7498 23.8144 27.2552 23.8144 26.95 24.119ZM38.1618 24.119C37.8567 23.8139 37.362 23.8144 37.0569 24.119C36.7518 24.4242 36.7521 24.9191 37.0571 25.2239L37.6714 25.8384C37.824 25.9909 38.0241 26.0673 38.2239 26.0673C38.4239 26.0673 38.6239 25.991 38.7763 25.8384C39.0815 25.5332 39.0815 25.0387 38.7763 24.7335L38.1618 24.119ZM37.6095 15.3459C37.8095 15.3459 38.0093 15.2696 38.1619 15.117L38.7763 14.5025C39.0815 14.1974 39.0815 13.7028 38.7763 13.3977C38.4712 13.0925 37.9767 13.0925 37.6715 13.3977L37.0572 14.0121C36.7521 14.3173 36.7521 14.8118 37.0572 15.117C37.2097 15.2696 37.4095 15.3459 37.6095 15.3459ZM32.556 13.2524C32.9875 13.2524 33.3373 12.9026 33.3373 12.4712V11.6025C33.3373 11.171 32.9876 10.8213 32.556 10.8213C32.1246 10.8213 31.7747 11.171 31.7747 11.6025V12.4712C31.7746 12.9027 32.1246 13.2524 32.556 13.2524ZM41.8422 19.6183C41.8422 24.7386 37.6765 28.9043 32.556 28.9043C27.4355 28.9043 23.2698 24.7386 23.2698 19.6183C23.2698 14.4976 27.4355 10.3318 32.556 10.3318C37.6765 10.3318 41.8422 14.4976 41.8422 19.6183ZM43.4046 19.6183C43.4046 25.6003 38.538 30.4669 32.556 30.4669C26.574 30.4669 21.7074 25.6003 21.7074 19.6183C21.7074 13.6362 26.574 8.76963 32.556 8.76963C38.538 8.76963 43.4046 13.6362 43.4046 19.6183ZM22.3049 10.6029C22.6904 10.1654 23.1034 9.75225 23.541 9.36709L23.1923 9.01826L21.9563 10.2541L22.3049 10.6029ZM31.6821 5.98867C31.9711 5.97031 32.2623 5.95967 32.5562 5.95967C32.8497 5.95967 33.141 5.97021 33.4301 5.98867V5.26943H31.6821V5.98867ZM30.3752 3.70684H34.7367L34.7368 2.77803H30.3753L30.3752 3.70684ZM41.5711 9.36709C42.0088 9.75225 42.4217 10.1653 42.807 10.6029L43.1558 10.2541L41.9198 9.01826L41.5711 9.36709ZM44.6518 19.6183C44.6518 26.2878 39.2257 31.7138 32.5562 31.7138C25.8867 31.7138 20.4604 26.2878 20.4604 19.6183C20.4604 12.9482 25.8866 7.52236 32.5562 7.52236C39.2258 7.52236 44.6518 12.9482 44.6518 19.6183ZM18.8977 19.6183C18.8977 16.7307 19.7991 14.0504 21.3342 11.842L20.7327 11.2404C20.4697 10.9775 20.3246 10.6273 20.3246 10.2542C20.3246 9.88144 20.4697 9.53125 20.7327 9.26836L22.2062 7.79443C22.7499 7.25117 23.6347 7.25117 24.1783 7.79443L24.7798 8.39609C26.3523 7.30322 28.1639 6.53154 30.1194 6.17764V5.26494C29.3914 5.21621 28.8125 4.57275 28.8125 3.78691V2.69844C28.8125 1.88037 29.4382 1.21533 30.2071 1.21533H34.9046C35.6737 1.21533 36.2993 1.88037 36.2993 2.69844V3.78672C36.2993 4.57266 35.7204 5.21602 34.9924 5.26475V6.17744C36.948 6.53135 38.7596 7.30293 40.3322 8.3959L40.9337 7.79424C41.1965 7.53135 41.5468 7.38662 41.9198 7.38662C42.2924 7.38662 42.6427 7.53135 42.9057 7.79424L44.3794 9.26816C44.9232 9.81191 44.9232 10.6966 44.3794 11.2402L43.7779 11.8418C45.3128 14.0501 46.2143 16.7305 46.2143 19.6181C46.2143 27.1489 40.0873 33.2762 32.5562 33.2762C25.025 33.2762 18.8977 27.1491 18.8977 19.6183ZM44.8171 33.8003C44.2045 32.7772 42.5423 32.9216 40.3711 34.1858L32.6502 38.6829C31.4402 39.3874 30.1446 39.6149 28.6897 39.3787C27.1645 39.1301 25.688 38.7398 24.2031 38.3157C23.6664 38.1627 23.1114 38.0041 22.5465 37.8529C22.1297 37.7413 21.8825 37.3129 21.994 36.8961C22.1058 36.4792 22.534 36.2324 22.9508 36.3437C23.528 36.498 24.0894 36.6585 24.6321 36.8134C25.7715 37.1388 26.8486 37.4463 27.9799 37.6792C28.612 37.7514 29.4046 37.6342 29.6577 36.6901C29.8495 35.9731 29.4279 35.2452 28.6735 34.9781C26.3529 34.553 24.1198 33.7455 22.3229 33.0961C21.6974 32.8699 21.1575 32.6746 20.6898 32.5229C19.2643 32.0606 17.8942 32.6765 16.6258 33.4108L10.9524 36.696L14.6785 43.2796L16.1397 42.4362C16.319 42.3323 16.5323 42.3043 16.7325 42.3581L26.8955 45.0812C28.1628 45.4213 29.3567 45.2535 30.4447 44.5839L44.4562 35.9561C45.0543 35.5881 45.2364 34.4998 44.8171 33.8003ZM14.612 46.3347C14.6744 46.4445 14.6587 46.5507 14.6438 46.6044C14.6288 46.6577 14.5877 46.7569 14.4777 46.819L12.3112 48.0452C12.2011 48.1072 12.0951 48.0916 12.0415 48.077C11.988 48.0622 11.889 48.0209 11.8268 47.911L5.45775 36.6575C5.36293 36.4897 5.42435 36.2678 5.59203 36.1727L7.75843 34.947C7.81966 34.912 7.87953 34.9015 7.93002 34.9015C7.97025 34.9015 8.00433 34.9084 8.02826 34.9148C8.08177 34.93 8.1807 34.9709 8.243 35.0812L14.612 46.3347ZM45.2754 37.2867C46.595 36.4746 47.0155 34.4299 46.1576 32.9974C45.7421 32.3034 44.0398 30.2412 39.5848 32.8356L31.8637 37.3332C31.554 37.5134 31.2404 37.6508 30.9172 37.7454C31.0203 37.546 31.1043 37.3286 31.1669 37.0946C31.5748 35.572 30.6714 33.9827 29.1103 33.4768C29.0769 33.4657 29.0426 33.4574 29.0081 33.451C26.7967 33.052 24.6106 32.262 22.8541 31.6269C22.2421 31.4054 21.664 31.1967 21.1717 31.0367C19.159 30.3841 17.3485 31.187 15.8428 32.0589L10.1827 35.3362L9.60287 34.3113C9.35111 33.8669 8.94007 33.5461 8.44545 33.4092C7.95101 33.2723 7.43363 33.3352 6.989 33.587L4.8224 34.8133C3.90218 35.334 3.57718 36.5063 4.09799 37.427L10.4668 48.6805C10.8195 49.3032 11.4703 49.6534 12.1393 49.6534C12.459 49.6534 12.7832 49.5734 13.0807 49.4053L15.2471 48.1791C15.692 47.9272 16.0122 47.5164 16.1494 47.0219C16.2867 46.5273 16.2236 46.0099 15.9717 45.5649L15.448 44.6397L16.6404 43.9513L26.4911 46.5906C27.0451 46.7391 27.5962 46.8131 28.1384 46.8131C29.2353 46.8131 30.2949 46.5111 31.2634 45.9146L45.2754 37.2867ZM8.47406 37.1814C8.40853 36.7329 7.99027 36.4213 7.54154 36.487C7.09291 36.5522 6.78129 36.971 6.84681 37.4195C6.90658 37.8281 7.25882 38.1228 7.6599 38.1228C7.69945 38.1228 7.73929 38.12 7.77953 38.1145C8.22806 38.0487 8.53978 37.6301 8.47406 37.1814Z" fill="black"/>
</svg>
