<svg width="51" height="51" viewBox="0 0 51 51" fill="none" xmlns="http://www.w3.org/2000/svg">
<g clip-path="url(#clip0_244_3166)">
<path d="M40.8516 27.437V22.7495H37.5C37.1834 21.0704 36.5239 19.4746 35.5625 18.062L37.9062 15.7183L34.6016 12.3901L32.2578 14.7339C30.8452 13.7725 29.2494 13.1129 27.5703 12.7964V9.46826H22.8828V12.8198C21.2037 13.1364 19.6079 13.796 18.1953 14.7573L15.8516 12.4136L12.5234 15.7183L14.8672 18.062C13.9058 19.4746 13.2462 21.0704 12.9297 22.7495H9.60156V27.437H12.9531C13.2697 29.1161 13.9293 30.7119 14.8906 32.1245L12.5469 34.4683L15.8516 37.7964L18.1953 35.4526C19.6079 36.414 21.2037 37.0736 22.8828 37.3901V40.7183H27.5703V37.3667C29.2494 37.0501 30.8452 36.3906 32.2578 35.4292L34.6016 37.7729L37.9297 34.4683L35.5859 32.1245C36.5473 30.7119 37.2069 29.1161 37.5234 27.437H40.8516Z" stroke="black" stroke-width="2" stroke-linejoin="round"/>
<path d="M25.2266 32.9058C29.5413 32.9058 33.0391 29.408 33.0391 25.0933C33.0391 20.7785 29.5413 17.2808 25.2266 17.2808C20.9118 17.2808 17.4141 20.7785 17.4141 25.0933C17.4141 29.408 20.9118 32.9058 25.2266 32.9058Z" stroke="black" stroke-width="2" stroke-linejoin="round"/>
<path d="M39.2891 11.0308L48.6641 1.65576" stroke="black" stroke-width="2" stroke-linejoin="round"/>
<path d="M43.1953 1.65576H48.6641V7.12451" stroke="black" stroke-width="2" stroke-linejoin="round"/>
<path d="M11.1641 11.0308L1.78906 1.65576" stroke="black" stroke-width="2" stroke-linejoin="round"/>
<path d="M7.25781 1.65576H1.78906V7.12451" stroke="black" stroke-width="2" stroke-linejoin="round"/>
<path d="M39.2891 39.1558L48.6641 48.5308" stroke="black" stroke-width="2" stroke-linejoin="round"/>
<path d="M43.1953 48.5308H48.6641V43.062" stroke="black" stroke-width="2" stroke-linejoin="round"/>
<path d="M11.1641 39.1558L1.78906 48.5308" stroke="black" stroke-width="2" stroke-linejoin="round"/>
<path d="M7.25781 48.5308H1.78906V43.062" stroke="black" stroke-width="2" stroke-linejoin="round"/>
</g>
<defs>
<clipPath id="clip0_244_3166">
<rect width="50" height="50" fill="white" transform="translate(0.226562 0.0932617)"/>
</clipPath>
</defs>
</svg>
