<svg width="51" height="51" viewBox="0 0 51 51" fill="none" xmlns="http://www.w3.org/2000/svg">
<g clip-path="url(#clip0_244_3191)">
<path d="M24.9217 18.4773C25.0173 18.5209 25.1211 18.5436 25.2262 18.5436C25.3312 18.5436 25.4351 18.5209 25.5306 18.4773C26.8282 17.8882 27.9814 17.0229 28.9098 15.9418C30.254 14.3604 30.9645 12.4641 30.9645 10.4579V7.20891C30.9645 7.02215 30.8931 6.84245 30.765 6.70656C30.6369 6.57067 30.4617 6.48886 30.2752 6.47786C29.0484 6.41239 27.8533 6.06342 26.784 5.45832C26.4013 5.23627 26.0399 4.97921 25.7045 4.69045C25.5716 4.57575 25.4018 4.51265 25.2262 4.51265C25.0506 4.51265 24.8808 4.57575 24.7478 4.69045C24.4125 4.97923 24.0512 5.23626 23.6684 5.45823C22.5991 6.06331 21.4041 6.41229 20.1772 6.47776C19.9907 6.48877 19.8155 6.57059 19.6874 6.7065C19.5593 6.84241 19.4879 7.02213 19.4879 7.20891V10.4579C19.4879 12.4642 20.1986 14.3607 21.5429 15.942C22.4712 17.023 23.6243 17.8883 24.9217 18.4773ZM20.9528 7.87532C22.1679 7.724 23.3409 7.33305 24.4038 6.72512C24.688 6.56018 24.9626 6.37923 25.2262 6.18313C25.4899 6.37922 25.7645 6.56018 26.0487 6.72512C27.1116 7.33307 28.2846 7.72402 29.4998 7.87532V10.4579C29.4998 12.1118 28.9098 13.6801 27.7934 14.9934C27.0791 15.8253 26.2064 16.507 25.2262 16.9986C24.2461 16.507 23.3735 15.8255 22.6592 14.9937C21.5428 13.6803 20.9528 12.1119 20.9528 10.4579V7.87532ZM50.0118 23.3508C49.9438 23.2828 49.863 23.2288 49.7741 23.192C49.6853 23.1552 49.59 23.1362 49.4938 23.1362C49.3976 23.1362 49.3023 23.1552 49.2135 23.192C49.1246 23.2288 49.0438 23.2828 48.9758 23.3508L44.7415 27.5852L34.6979 17.3299C35.4827 16.0545 35.9998 14.6328 36.2176 13.1512L39.0721 10.2764C39.1399 10.2081 39.1936 10.1272 39.2301 10.0382C39.2666 9.94922 39.2852 9.85391 39.2848 9.75772C39.2845 9.66154 39.2652 9.56636 39.2281 9.47762C39.191 9.38888 39.1368 9.30833 39.0685 9.24055C39.0003 9.17277 38.9193 9.1191 38.8303 9.0826C38.7413 9.04611 38.646 9.02749 38.5498 9.02783C38.4537 9.02816 38.3585 9.04744 38.2697 9.08456C38.181 9.12168 38.1004 9.17591 38.0327 9.24416L36.3227 10.9663C36.1776 8.10383 34.9319 5.40815 32.8458 3.44258C30.7598 1.47702 27.9949 0.393661 25.1288 0.418888C22.2627 0.444115 19.5173 1.57598 17.4662 3.57796C15.4151 5.57994 14.217 8.29713 14.1223 11.1617L12.1356 9.23459C11.9958 9.10126 11.809 9.02856 11.6159 9.03231C11.4227 9.03606 11.2389 9.11596 11.1044 9.25461C10.9699 9.39327 10.8956 9.57945 10.8977 9.77261C10.8998 9.96578 10.9782 10.1503 11.1157 10.286L14.2654 13.3414C14.5033 14.7844 15.0255 16.1658 15.8016 17.4054L5.77212 27.6464L1.47651 23.3508C1.40877 23.2816 1.32798 23.2265 1.23881 23.1887C1.14964 23.151 1.05386 23.1313 0.957026 23.1307C0.860188 23.1302 0.764209 23.1489 0.674642 23.1857C0.585076 23.2226 0.5037 23.2768 0.435225 23.3453C0.366749 23.4137 0.312532 23.4951 0.275711 23.5847C0.238891 23.6742 0.220198 23.7702 0.220714 23.8671C0.221229 23.9639 0.240944 24.0597 0.278716 24.1488C0.316489 24.238 0.371569 24.3188 0.44077 24.3865L5.13042 29.0763C5.19268 29.1836 5.28193 29.2729 5.38931 29.3351L6.03432 29.9801C6.37346 30.3214 6.77696 30.592 7.22144 30.7762C7.66592 30.9604 8.14254 31.0546 8.62368 31.0532C8.96445 31.0533 9.30357 31.006 9.6313 30.9126C9.64984 31.4099 9.70392 31.9053 9.79311 32.3948C9.45185 32.5515 9.14126 32.7678 8.87593 33.0335L7.26802 34.6414C6.82416 35.0853 6.5219 35.6508 6.39944 36.2665C6.27698 36.8822 6.33984 37.5203 6.58005 38.1003C6.82027 38.6802 7.22706 39.1759 7.74899 39.5246C8.27091 39.8734 8.88453 40.0596 9.51225 40.0596C9.61108 40.0596 9.70913 40.0546 9.8062 40.0457C9.76517 40.4852 9.81633 40.9285 9.95642 41.3471C10.0965 41.7657 10.3224 42.1505 10.6198 42.4768C10.9171 42.8031 11.2792 43.0637 11.683 43.242C12.0869 43.4203 12.5235 43.5123 12.9649 43.5122C13.0632 43.5122 13.1608 43.5073 13.2575 43.4986C13.2487 43.5952 13.2438 43.6927 13.2438 43.7909C13.2436 44.2077 13.3256 44.6204 13.4851 45.0055C13.6446 45.3905 13.8784 45.7404 14.1731 46.035C14.4679 46.3296 14.8179 46.5633 15.203 46.7226C15.5881 46.8818 16.0009 46.9636 16.4176 46.9633C16.5153 46.9633 16.6128 46.9587 16.7103 46.9496C16.7014 47.0468 16.6964 47.1449 16.6964 47.2437C16.6953 47.6606 16.7769 48.0737 16.9365 48.4589C17.0961 48.8441 17.3305 49.1938 17.6261 49.4878C18.2218 50.0821 19.0289 50.4159 19.8703 50.4159C20.7117 50.4159 21.5188 50.0822 22.1145 49.4879L23.1721 48.4303L24.2297 49.4881C24.6912 49.95 25.2838 50.2582 25.9269 50.3708C26.57 50.4833 27.2321 50.3947 27.823 50.1171C28.4139 49.8395 28.9047 49.3863 29.2285 48.8194C29.5523 48.2525 29.6933 47.5995 29.6323 46.9495C29.7301 46.9586 29.8282 46.9631 29.9266 46.9632C30.3434 46.9635 30.7561 46.8817 31.1412 46.7224C31.5263 46.5631 31.8762 46.3295 32.171 46.0349C32.4657 45.7403 32.6995 45.3905 32.859 45.0055C33.0185 44.6205 33.1005 44.2078 33.1004 43.791C33.1004 43.6927 33.0956 43.5952 33.0868 43.4986C33.1834 43.5073 33.2809 43.5122 33.3792 43.5122C34.2209 43.5122 35.0282 43.1778 35.6234 42.5826C36.2186 41.9873 36.553 41.1801 36.5531 40.3383C36.5531 40.24 36.5482 40.1425 36.5394 40.0457C36.6361 40.0545 36.7335 40.0594 36.8319 40.0594C37.4596 40.0594 38.0732 39.8732 38.5951 39.5245C39.117 39.1758 39.5238 38.6801 39.764 38.1002C40.0042 37.5202 40.0671 36.8821 39.9447 36.2665C39.8222 35.6508 39.52 35.0853 39.0761 34.6414L38.1884 33.7537C39.2204 32.9687 40.1015 32.003 40.789 30.9036C41.1266 31.003 41.4768 31.0534 41.8288 31.0532C42.3098 31.0546 42.7864 30.9605 43.2309 30.7763C43.6753 30.5921 44.0788 30.3216 44.4179 29.9804L50.0117 24.3866C50.0797 24.3186 50.1336 24.2379 50.1705 24.149C50.2073 24.0602 50.2262 23.9649 50.2262 23.8687C50.2262 23.7725 50.2073 23.6773 50.1705 23.5884C50.1336 23.4996 50.0798 23.4188 50.0118 23.3508ZM15.6801 12.9119C15.6791 12.9014 15.6772 12.8909 15.6757 12.8805C15.4544 11.3257 15.616 9.74032 16.1466 8.26216C16.6772 6.784 17.5607 5.45774 18.7203 4.39859C19.8799 3.33944 21.2805 2.57944 22.8006 2.1846C24.3206 1.78976 25.9141 1.77203 27.4426 2.13295C28.971 2.49387 30.3883 3.22251 31.5711 4.2556C32.754 5.28868 33.6668 6.59496 34.2301 8.06094C34.7934 9.52693 34.9903 11.1083 34.8036 12.6677C34.617 14.227 34.0524 15.7172 33.1589 17.0088L33.1541 17.0157C32.0522 18.6091 30.4959 19.8336 28.6881 20.5297C26.8802 21.2258 24.9046 21.3612 23.0187 20.9183C21.1327 20.4754 19.4239 19.4747 18.115 18.0466C16.806 16.6185 15.9575 14.8292 15.6801 12.9119ZM8.62368 29.5884C8.33502 29.5892 8.04908 29.5327 7.78242 29.4221C7.51577 29.3116 7.2737 29.1492 7.07026 28.9445L6.80806 28.6822L16.6719 18.6103C17.2521 19.3096 17.9152 19.9358 18.6465 20.475L10.1763 28.9452C9.97291 29.1498 9.73094 29.312 9.46443 29.4224C9.19792 29.5328 8.91215 29.5892 8.62368 29.5884ZM10.7207 38.0942C10.562 38.2529 10.3736 38.3788 10.1662 38.4647C9.95891 38.5505 9.73668 38.5948 9.51225 38.5948C9.28783 38.5948 9.0656 38.5505 8.85826 38.4647C8.65092 38.3788 8.46254 38.2529 8.30386 38.0942C7.98338 37.7737 7.80334 37.3389 7.80334 36.8857C7.80334 36.4324 7.98338 35.9978 8.30386 35.6773L9.91167 34.0695C10.0701 33.9096 10.2586 33.7826 10.4662 33.6958C10.6738 33.609 10.8966 33.5641 11.1216 33.5636C11.3467 33.5631 11.5696 33.607 11.7776 33.6929C11.9857 33.7788 12.1747 33.905 12.3338 34.0641C12.493 34.2232 12.6191 34.4122 12.705 34.6203C12.7909 34.8283 12.8349 35.0512 12.8344 35.2763C12.8339 35.5013 12.789 35.7241 12.7022 35.9317C12.6154 36.1394 12.4884 36.3278 12.3286 36.4863L10.7207 38.0942ZM12.9649 42.0474C12.7404 42.048 12.518 42.004 12.3106 41.9181C12.1031 41.8322 11.9148 41.706 11.7565 41.5468V41.5467C11.4365 41.226 11.2568 40.7914 11.2568 40.3383C11.2568 39.8852 11.4365 39.4507 11.7565 39.1299L13.3643 37.522C13.6848 37.2015 14.1195 37.0214 14.5728 37.0214C15.0261 37.0214 15.4608 37.2015 15.7813 37.522C16.1018 37.8425 16.2819 38.2772 16.2819 38.7305C16.2819 39.1838 16.1018 39.6185 15.7813 39.939L14.1734 41.5468C14.015 41.706 13.8267 41.8322 13.6193 41.9181C13.4118 42.004 13.1894 42.048 12.9649 42.0474ZM15.2091 44.9994C14.8887 44.6789 14.7086 44.2443 14.7086 43.791C14.7086 43.3378 14.8887 42.9031 15.2091 42.5826L16.817 40.9747C17.1375 40.6542 17.5722 40.4742 18.0255 40.4742C18.4787 40.4742 18.9134 40.6542 19.2339 40.9747C19.5544 41.2952 19.7345 41.7299 19.7345 42.1832C19.7345 42.6364 19.5544 43.0711 19.2339 43.3916L17.626 44.9994C17.3053 45.3195 16.8707 45.4993 16.4176 45.4993C15.9645 45.4993 15.5299 45.3195 15.2091 44.9994ZM22.6867 46.8442L21.0788 48.4521C20.758 48.7722 20.3234 48.952 19.8703 48.952C19.4171 48.952 18.9825 48.7722 18.6618 48.4521V48.4522C18.5031 48.2935 18.3772 48.1051 18.2913 47.8977C18.2054 47.6904 18.1612 47.4682 18.1612 47.2437C18.1612 47.0193 18.2054 46.7971 18.2913 46.5897C18.3772 46.3824 18.5031 46.194 18.6618 46.0353L20.2697 44.4274C20.5902 44.1069 21.0248 43.9268 21.4781 43.9268C21.9314 43.9267 22.3661 44.1068 22.6866 44.4273C23.0071 44.7478 23.1872 45.1824 23.1872 45.6357C23.1872 46.089 23.0072 46.5237 22.6867 46.8442ZM38.541 36.8857C38.541 37.2237 38.4407 37.5541 38.2529 37.8352C38.0652 38.1162 37.7982 38.3353 37.486 38.4646C37.1737 38.5939 36.83 38.6278 36.4985 38.5618C36.167 38.4959 35.8625 38.3331 35.6235 38.0941L30.3754 32.846C30.3074 32.778 30.2267 32.724 30.1378 32.6872C30.0489 32.6504 29.9537 32.6315 29.8575 32.6315C29.7613 32.6315 29.6661 32.6504 29.5772 32.6872C29.4883 32.724 29.4076 32.778 29.3396 32.846C29.2715 32.914 29.2176 32.9947 29.1808 33.0836C29.1439 33.1725 29.125 33.2677 29.125 33.3639C29.125 33.4601 29.1439 33.5553 29.1807 33.6442C29.2175 33.7331 29.2715 33.8138 29.3395 33.8819L34.5875 39.1299C34.7483 39.2882 34.876 39.4766 34.9636 39.6845C35.0511 39.8924 35.0966 40.1155 35.0975 40.341C35.0983 40.5666 35.0545 40.79 34.9686 40.9986C34.8827 41.2071 34.7564 41.3966 34.5969 41.5561C34.4374 41.7155 34.248 41.8419 34.0394 41.9278C33.8309 42.0137 33.6074 42.0575 33.3819 42.0566C33.1563 42.0557 32.9332 42.0102 32.7253 41.9227C32.5175 41.8352 32.329 41.7074 32.1708 41.5467L26.9228 36.2987C26.7854 36.1613 26.5991 36.0841 26.4049 36.0841C26.2106 36.0841 26.0243 36.1613 25.887 36.2987C25.7496 36.436 25.6724 36.6223 25.6724 36.8166C25.6724 37.0108 25.7496 37.1971 25.887 37.3345L31.1349 42.5825C31.2962 42.7406 31.4246 42.9292 31.5126 43.1372C31.6006 43.3452 31.6465 43.5686 31.6476 43.7944C31.6487 44.0203 31.6051 44.2442 31.5192 44.453C31.4333 44.6619 31.3068 44.8517 31.1471 45.0114C30.9874 45.1711 30.7976 45.2976 30.5887 45.3835C30.3798 45.4695 30.156 45.5131 29.9301 45.512C29.7043 45.5109 29.4809 45.465 29.2729 45.377C29.0648 45.289 28.8763 45.1606 28.7182 44.9993L23.4701 39.7513C23.4021 39.6833 23.3213 39.6293 23.2325 39.5925C23.1436 39.5556 23.0483 39.5367 22.9521 39.5366C22.8559 39.5366 22.7607 39.5556 22.6718 39.5924C22.5829 39.6291 22.5022 39.6831 22.4341 39.7511C22.3661 39.8191 22.3121 39.8998 22.2753 39.9887C22.2385 40.0776 22.2195 40.1728 22.2195 40.269C22.2195 40.3652 22.2384 40.4605 22.2752 40.5494C22.312 40.6382 22.3659 40.719 22.4339 40.787L27.682 46.0351C27.8427 46.1933 27.9705 46.3818 28.0581 46.5896C28.1456 46.7975 28.1912 47.0206 28.1921 47.2461C28.193 47.4717 28.1492 47.6951 28.0634 47.9037C27.9775 48.1122 27.8512 48.3017 27.6917 48.4612C27.5323 48.6207 27.3428 48.7471 27.1343 48.833C26.9258 48.919 26.7023 48.9628 26.4768 48.962C26.2513 48.9611 26.0281 48.9157 25.8202 48.8282C25.6124 48.7407 25.4238 48.6129 25.2656 48.4523L24.1548 47.3415C24.4605 46.8617 24.6316 46.3086 24.6502 45.74C24.6689 45.1714 24.5343 44.6082 24.2607 44.1095C23.9871 43.6107 23.5845 43.1946 23.0949 42.9048C22.6054 42.6149 22.047 42.462 21.4781 42.4619C21.3798 42.4619 21.2823 42.4668 21.1856 42.4756C21.1944 42.3789 21.1993 42.2815 21.1993 42.1832C21.1992 41.3415 20.8648 40.5342 20.2696 39.939C19.6744 39.3438 18.8672 39.0094 18.0254 39.0093C17.9272 39.0093 17.8296 39.0142 17.733 39.023C17.7417 38.9263 17.7466 38.8288 17.7466 38.7305C17.7466 37.8888 17.4121 37.0815 16.817 36.4863C16.2218 35.8912 15.4145 35.5567 14.5728 35.5567C14.4745 35.5567 14.3769 35.5615 14.2802 35.5703C14.289 35.4737 14.2939 35.3761 14.2939 35.2779C14.2944 34.455 13.9748 33.6642 13.4028 33.0726C12.8307 32.4811 12.0511 32.1352 11.2287 32.1081C11.1099 31.4441 11.0662 30.7688 11.0982 30.0949L11.2122 29.981L11.2131 29.98L11.2135 29.9796L19.8789 21.3144C19.8895 21.3037 19.8989 21.2924 19.9087 21.2812C21.0572 21.9102 22.3085 22.3297 23.6041 22.5199L19.1773 27.4673C18.7897 27.9009 18.5828 28.4664 18.5989 29.0477C18.615 29.6291 18.853 30.1822 19.264 30.5937C20.0441 31.3719 21.101 31.809 22.2029 31.8089C23.3047 31.8089 24.3616 31.3718 25.1416 30.5936L29.0487 26.6856L38.0403 35.6773C38.1995 35.8356 38.3257 36.0239 38.4117 36.2313C38.4976 36.4387 38.5416 36.6611 38.541 36.8857ZM38.7769 31.1844C38.2945 31.7553 37.7455 32.2665 37.1417 32.7071L29.6849 25.2502C29.6407 25.2158 29.6008 25.1761 29.5663 25.1321C29.4983 25.064 29.4175 25.0101 29.3287 24.9732C29.2398 24.9364 29.1446 24.9175 29.0484 24.9175C28.9522 24.9175 28.857 24.9364 28.7681 24.9732C28.6792 25.0101 28.5985 25.064 28.5305 25.1321L24.1057 29.5578C23.6006 30.0617 22.9163 30.3447 22.2028 30.3447C21.4893 30.3447 20.805 30.0617 20.2999 29.5578C20.1534 29.4112 20.0687 29.2141 20.063 29.007C20.0573 28.7999 20.131 28.5984 20.2691 28.444L25.4662 22.6357C27.253 22.5993 29.0043 22.1296 30.5695 21.2668C30.6665 21.3928 30.7716 21.5124 30.884 21.6248L39.2393 29.9801C39.3204 30.0612 39.4048 30.1376 39.4918 30.2101C39.2749 30.55 39.036 30.8754 38.7769 31.1844ZM43.3819 28.9447C43.178 29.1488 42.9358 29.3107 42.6693 29.4211C42.4028 29.5315 42.1171 29.5884 41.8286 29.5883C41.5401 29.5883 41.2544 29.5314 40.9879 29.4209C40.7214 29.3105 40.4793 29.1486 40.2754 28.9445L31.9199 20.589C31.8823 20.5509 31.8462 20.5116 31.8115 20.4709C32.564 19.9152 33.244 19.2675 33.8356 18.5429L43.7055 28.6211L43.3819 28.9447Z" fill="black"/>
</g>
<defs>
<clipPath id="clip0_244_3191">
<rect width="50" height="50" fill="white" transform="translate(0.226562 0.41748)"/>
</clipPath>
</defs>
</svg>
