<svg width="24" height="25" viewBox="0 0 24 25" fill="none" xmlns="http://www.w3.org/2000/svg">
<g clip-path="url(#clip0_244_3726)">
<mask id="mask0_244_3726" style="mask-type:luminance" maskUnits="userSpaceOnUse" x="0" y="0" width="24" height="25">
<path d="M24 0.429688H0V24.4297H24V0.429688Z" fill="white"/>
</mask>
<g mask="url(#mask0_244_3726)">
<path d="M2.8125 1.42969H21.1875C22.1885 1.42969 23 2.24117 23 3.24219V21.6172C23 22.6182 22.1885 23.4297 21.1875 23.4297H2.8125C1.81148 23.4297 1 22.6182 1 21.6172V3.24219C1 2.24117 1.81148 1.42969 2.8125 1.42969Z" fill="#1E1E1E" stroke="white" stroke-width="2"/>
<path d="M16.6839 5.11719H19.1649L13.7446 11.3122L20.1211 19.7422H15.1284L11.2179 14.6294L6.74338 19.7422H4.26091L10.0584 13.1159L3.94141 5.11719H9.06088L12.5956 9.79044L16.6839 5.11719ZM15.8131 18.2572H17.1879L8.31388 6.52419H6.83863L15.8131 18.2572Z" fill="white"/>
</g>
</g>
<defs>
<clipPath id="clip0_244_3726">
<rect width="24" height="24" fill="white" transform="translate(0 0.429688)"/>
</clipPath>
</defs>
</svg>
